<svg version="1.1" viewBox="0.0 0.0 170.3727034120735 195.01049868766404" fill="none" stroke="none" stroke-linecap="square" stroke-miterlimit="10" xmlns:xlink="http://www.w3.org/1999/xlink" xmlns="http://www.w3.org/2000/svg"><clipPath id="p.0"><path d="m0 0l170.3727 0l0 195.0105l-170.3727 0l0 -195.0105z" clip-rule="nonzero"/></clipPath><g clip-path="url(#p.0)"><path fill="#000000" fill-opacity="0.0" d="m0 0l170.3727 0l0 195.0105l-170.3727 0z" fill-rule="evenodd"/><path fill="#000000" fill-opacity="0.0" d="m152.41342 25.142204l-134.4567 0l0 144.7244l134.4567 0z" fill-rule="evenodd"/><path fill="#434343" d="m85.62769 51.993782q17.28125 0 28.609375 9.09375q11.328125 9.078125 14.656242 24.5625l-23.171867 0q-2.546875 -6.265625 -7.859375 -9.84375q-5.3125 -3.59375 -12.609375 -3.59375q-9.609375 0 -15.5 7.046875q-5.875 7.03125 -5.875 18.8125q0 11.78125 5.875 18.765625q5.890625 6.96875 15.5 6.96875q7.296875 0 12.609375 -3.578125q5.3125 -3.59375 7.859375 -9.734375l23.171867 0q-3.3281174 15.359375 -14.656242 24.515633q-11.328125 9.140625 -28.609375 9.140625q-13.171875 0 -23.15625 -5.8125q-9.984375 -5.828125 -15.4375 -16.328133q-5.4375 -10.5 -5.4375 -23.9375q0 -13.4375 5.4375 -23.9375q5.453125 -10.5 15.4375 -16.3125q9.984375 -5.828125 23.15625 -5.828125z" fill-rule="nonzero"/><path fill="#000000" fill-opacity="0.0" d="m85.18528 182.37054l73.51179 -36.755905l0 -96.22047l-73.51179 -36.755905l-73.51177 36.755905l0 96.22047z" fill-rule="evenodd"/><path stroke="#674ea7" stroke-width="24.0" stroke-linejoin="round" stroke-linecap="butt" d="m85.18528 182.37054l73.51179 -36.755905l0 -96.22047l-73.51179 -36.755905l-73.51177 36.755905l0 96.22047z" fill-rule="evenodd"/></g></svg>