<svg version="1.1" viewBox="0.0 0.0 459.56167979002623 682.1811023622047" fill="none" stroke="none" stroke-linecap="square" stroke-miterlimit="10" xmlns:xlink="http://www.w3.org/1999/xlink" xmlns="http://www.w3.org/2000/svg"><clipPath id="p.0"><path d="m0 0l459.56168 0l0 682.1811l-459.56168 0l0 -682.1811z" clip-rule="nonzero"/></clipPath><g clip-path="url(#p.0)"><path fill="#000000" fill-opacity="0.0" d="m0 0l459.56168 0l0 682.1811l-459.56168 0z" fill-rule="evenodd"/><path fill="#cccccc" d="m103.937004 156.57742l-71.95275 0l0 228.51968l71.95275 0z" fill-rule="evenodd"/><path fill="#a3a3a3" d="m31.984251 156.57742l-23.984251 -23.984253l0 228.51968l23.984251 23.984253z" fill-rule="evenodd"/><path fill="#d6d6d6" d="m103.937004 156.57742l-23.984245 -23.984253l-71.95276 0l23.984251 23.984253z" fill-rule="evenodd"/><path fill="#000000" fill-opacity="0.0" d="m103.937004 156.57742l-23.984245 -23.984253l-71.95276 0l0 228.51968l23.984251 23.984253l71.95275 0zm0 0l-71.95275 0l-23.984251 -23.984253m23.984251 23.984253l0 228.51968" fill-rule="evenodd"/><path stroke="#000000" stroke-width="3.0" stroke-linejoin="round" stroke-linecap="butt" d="m103.937004 156.57742l-23.984245 -23.984253l-71.95276 0l0 228.51968l23.984251 23.984253l71.95275 0zm0 0l-71.95275 0l-23.984251 -23.984253m23.984251 23.984253l0 228.51968" fill-rule="evenodd"/><path fill="#274e13" d="m50.45669 8.0l0 0c0 -5.054474E-5 4.196167E-5 -9.202957E-5 9.1552734E-5 -9.202957E-5l11.023533 9.202957E-5c2.2888184E-5 0 4.5776367E-5 9.536743E-6 6.484985E-5 2.670288E-5c1.5258789E-5 1.7166138E-5 2.670288E-5 4.1007996E-5 2.670288E-5 6.484985E-5l-9.1552734E-5 137.48022c0 4.5776367E-5 -4.196167E-5 9.1552734E-5 -9.1552734E-5 9.1552734E-5l-11.023533 -9.1552734E-5l0 0c-4.9591064E-5 0 -9.1552734E-5 -4.5776367E-5 -9.1552734E-5 -9.1552734E-5z" fill-rule="evenodd"/><path stroke="#000000" stroke-width="3.0" stroke-linejoin="round" stroke-linecap="butt" d="m50.45669 8.0l0 0c0 -5.054474E-5 4.196167E-5 -9.202957E-5 9.1552734E-5 -9.202957E-5l11.023533 9.202957E-5c2.2888184E-5 0 4.5776367E-5 9.536743E-6 6.484985E-5 2.670288E-5c1.5258789E-5 1.7166138E-5 2.670288E-5 4.1007996E-5 2.670288E-5 6.484985E-5l-9.1552734E-5 137.48022c0 4.5776367E-5 -4.196167E-5 9.1552734E-5 -9.1552734E-5 9.1552734E-5l-11.023533 -9.1552734E-5l0 0c-4.9591064E-5 0 -9.1552734E-5 -4.5776367E-5 -9.1552734E-5 -9.1552734E-5z" fill-rule="evenodd"/><path fill="#274e13" d="m50.45669 385.0971l0 0c0 -3.0517578E-5 4.196167E-5 -9.1552734E-5 9.1552734E-5 -9.1552734E-5l11.023533 9.1552734E-5c2.2888184E-5 0 4.5776367E-5 3.0517578E-5 6.484985E-5 3.0517578E-5c1.5258789E-5 3.0517578E-5 2.670288E-5 3.0517578E-5 2.670288E-5 6.1035156E-5l-9.1552734E-5 292.9448c0 6.1035156E-5 -4.196167E-5 1.2207031E-4 -9.1552734E-5 1.2207031E-4l-11.023533 -1.2207031E-4l0 0c-4.9591064E-5 0 -9.1552734E-5 -6.1035156E-5 -9.1552734E-5 -6.1035156E-5z" fill-rule="evenodd"/><path stroke="#000000" stroke-width="3.0" stroke-linejoin="round" stroke-linecap="butt" d="m50.45669 385.0971l0 0c0 -3.0517578E-5 4.196167E-5 -9.1552734E-5 9.1552734E-5 -9.1552734E-5l11.023533 9.1552734E-5c2.2888184E-5 0 4.5776367E-5 3.0517578E-5 6.484985E-5 3.0517578E-5c1.5258789E-5 3.0517578E-5 2.670288E-5 3.0517578E-5 2.670288E-5 6.1035156E-5l-9.1552734E-5 292.9448c0 6.1035156E-5 -4.196167E-5 1.2207031E-4 -9.1552734E-5 1.2207031E-4l-11.023533 -1.2207031E-4l0 0c-4.9591064E-5 0 -9.1552734E-5 -6.1035156E-5 -9.1552734E-5 -6.1035156E-5z" fill-rule="evenodd"/><path fill="#f3f3f3" d="m43.288715 166.36482l52.346455 0l0 201.6378l-52.346455 0z" fill-rule="evenodd"/><path stroke="#000000" stroke-width="3.0" stroke-linejoin="round" stroke-linecap="butt" d="m43.288715 166.36482l52.346455 0l0 201.6378l-52.346455 0z" fill-rule="evenodd"/><path fill="#d9d9d9" d="m75.25984 190.12993l63.399826 -105.297905l253.5993 0c35.01474 0 63.39981 47.14347 63.39981 105.297905c0 58.15442 -28.38507 105.2979 -63.39981 105.2979l-253.5993 0z" fill-rule="evenodd"/><path stroke="#000000" stroke-width="3.0" stroke-linejoin="round" stroke-linecap="butt" d="m75.25984 190.12993l63.399826 -105.297905l253.5993 0c35.01474 0 63.39981 47.14347 63.39981 105.297905c0 58.15442 -28.38507 105.2979 -63.39981 105.2979l-253.5993 0z" fill-rule="evenodd"/><path fill="#f3f3f3" d="m156.85039 92.55715l242.57198 0l0 160.92184c-121.28598 0 -121.28598 61.314163 -242.57198 26.476578z" fill-rule="evenodd"/><path stroke="#000000" stroke-width="3.0" stroke-linejoin="round" stroke-linecap="butt" d="m156.85039 92.55715l242.57198 0l0 160.92184c-121.28598 0 -121.28598 61.314163 -242.57198 26.476578z" fill-rule="evenodd"/><path fill="#38761d" d="m169.52232 123.12039l217.22835 0l0 17.35434l-217.22835 0z" fill-rule="evenodd"/><path stroke="#000000" stroke-width="3.0" stroke-linejoin="round" stroke-linecap="butt" d="m169.52232 123.12039l217.22835 0l0 17.35434l-217.22835 0z" fill-rule="evenodd"/><path fill="#000000" fill-opacity="0.0" d="m169.52232 140.46794l102.55119 0l0 60.91339l-102.55119 0z" fill-rule="evenodd"/><path fill="#0b5394" d="m187.6319 185.32463l0 -28.4375l9.953125 0q5.171875 0 7.84375 1.984375q2.6875 1.984375 2.6875 5.8125q0 2.078125 -1.078125 3.671875q-1.078125 1.59375 -2.984375 2.34375q2.1875 0.546875 3.4375 2.203125q1.265625 1.65625 1.265625 4.0625q0 4.09375 -2.625 6.203125q-2.609375 2.109375 -7.453125 2.15625l-11.046875 0zm5.859375 -12.390625l0 7.6875l5.015625 0q2.0625 0 3.21875 -0.984375q1.171875 -1.0 1.171875 -2.734375q0 -3.90625 -4.046875 -3.96875l-5.359375 0zm0 -4.140625l4.328125 0q4.4375 -0.078125 4.4375 -3.53125q0 -1.9375 -1.125 -2.78125q-1.125 -0.84375 -3.546875 -0.84375l-4.09375 0l0 7.15625zm24.792969 -0.1875l3.015625 0q2.140625 0 3.171875 -1.078125q1.046875 -1.078125 1.046875 -2.84375q0 -1.71875 -1.03125 -2.671875q-1.015625 -0.96875 -2.8125 -0.96875q-1.625 0 -2.71875 0.890625q-1.09375 0.890625 -1.09375 2.3125l-5.640625 0q0 -2.21875 1.1875 -3.984375q1.203125 -1.78125 3.359375 -2.765625q2.171875 -1.0 4.765625 -1.0q4.515625 0 7.0625 2.15625q2.5625 2.15625 2.5625 5.953125q0 1.953125 -1.1875 3.59375q-1.1875 1.640625 -3.125 2.515625q2.40625 0.859375 3.578125 2.578125q1.1875 1.71875 1.1875 4.0625q0 3.78125 -2.765625 6.078125q-2.765625 2.28125 -7.3125 2.28125q-4.265625 0 -6.96875 -2.25q-2.703125 -2.25 -2.703125 -5.9375l5.640625 0q0 1.609375 1.203125 2.625q1.203125 1.015625 2.96875 1.015625q2.0 0 3.140625 -1.0625q1.15625 -1.078125 1.15625 -2.828125q0 -4.265625 -4.6875 -4.265625l-3.0 0l0 -4.40625zm36.69922 16.71875l-19.484375 0l0 -3.875l9.203125 -9.796875q1.890625 -2.078125 2.796875 -3.609375q0.90625 -1.546875 0.90625 -2.9375q0 -1.890625 -0.953125 -2.96875q-0.953125 -1.09375 -2.734375 -1.09375q-1.921875 0 -3.03125 1.328125q-1.09375 1.3125 -1.09375 3.453125l-5.65625 0q0 -2.59375 1.234375 -4.734375q1.234375 -2.15625 3.5 -3.375q2.265625 -1.21875 5.140625 -1.21875q4.390625 0 6.828125 2.109375q2.4375 2.109375 2.4375 5.953125q0 2.109375 -1.09375 4.296875q-1.09375 2.1875 -3.75 5.09375l-6.46875 6.828125l12.21875 0l0 4.546875z" fill-rule="nonzero"/><path fill="#000000" fill-opacity="0.0" d="m284.1995 185.13461l102.55118 0l0 60.913376l-102.55118 0z" fill-rule="evenodd"/><path fill="#0b5394" d="m302.27762 217.30318q-1.3125 1.3125 -3.09375 1.3125q-2.25 0 -3.609375 -1.546875q-1.359375 -1.5625 -1.359375 -4.203125q0 -1.671875 0.71875 -3.0625q0.734375 -1.40625 2.046875 -2.1875q1.3125 -0.78125 2.953125 -0.78125q1.6875 0 3.0 0.84375q1.3125 0.84375 2.03125 2.421875q0.734375 1.578125 0.75 3.625l0 1.25q0 4.265625 -2.125 6.703125q-2.109375 2.4375 -6.0 2.609375l-0.84375 0.015625l0 -2.828125l0.75 -0.015625q4.421875 -0.203125 4.78125 -4.15625zm-2.25 -1.28125q0.8125 0 1.40625 -0.421875q0.59375 -0.421875 0.890625 -1.015625l0 -1.40625q0 -1.71875 -0.65625 -2.65625q-0.65625 -0.953125 -1.75 -0.953125q-1.015625 0 -1.671875 0.9375q-0.65625 0.921875 -0.65625 2.328125q0 1.390625 0.625 2.296875q0.640625 0.890625 1.8125 0.890625zm19.582031 1.046875q0 3.546875 -1.46875 5.421875q-1.453125 1.875 -4.28125 1.875q-2.78125 0 -4.265625 -1.84375q-1.46875 -1.84375 -1.515625 -5.265625l0 -3.140625q0 -3.578125 1.484375 -5.421875q1.484375 -1.859375 4.265625 -1.859375q2.796875 0 4.265625 1.84375q1.484375 1.828125 1.515625 5.25l0 3.140625zm-3.375 -3.4375q0 -2.125 -0.59375 -3.09375q-0.578125 -0.96875 -1.796875 -0.96875q-1.203125 0 -1.78125 0.921875q-0.5625 0.921875 -0.59375 2.875l0 4.15625q0 2.078125 0.5625 3.09375q0.578125 1.015625 1.828125 1.015625q1.25 0 1.796875 -0.96875q0.546875 -0.96875 0.578125 -2.984375l0 -4.046875zm13.894531 10.5l-3.390625 0l0 -13.0625l-4.046875 1.265625l0 -2.765625l7.078125 -2.53125l0.359375 0l0 17.09375zm8.988281 -10.03125l1.796875 0q1.296875 0 1.90625 -0.640625q0.625 -0.65625 0.625 -1.71875q0 -1.03125 -0.609375 -1.59375q-0.609375 -0.578125 -1.6875 -0.578125q-0.984375 0 -1.640625 0.53125q-0.65625 0.53125 -0.65625 1.390625l-3.375 0q0 -1.34375 0.71875 -2.40625q0.71875 -1.0625 2.015625 -1.65625q1.296875 -0.59375 2.84375 -0.59375q2.71875 0 4.25 1.296875q1.53125 1.296875 1.53125 3.5625q0 1.171875 -0.71875 2.15625q-0.703125 0.984375 -1.875 1.515625q1.453125 0.515625 2.15625 1.546875q0.703125 1.03125 0.703125 2.4375q0 2.265625 -1.65625 3.640625q-1.65625 1.375 -4.390625 1.375q-2.546875 0 -4.171875 -1.34375q-1.625 -1.359375 -1.625 -3.5625l3.390625 0q0 0.953125 0.71875 1.5625q0.71875 0.609375 1.78125 0.609375q1.203125 0 1.890625 -0.640625q0.6875 -0.640625 0.6875 -1.6875q0 -2.5625 -2.8125 -2.5625l-1.796875 0l0 -2.640625zm21.800781 2.96875q0 3.546875 -1.46875 5.421875q-1.453125 1.875 -4.28125 1.875q-2.78125 0 -4.265625 -1.84375q-1.46875 -1.84375 -1.515625 -5.265625l0 -3.140625q0 -3.578125 1.484375 -5.421875q1.484375 -1.859375 4.265625 -1.859375q2.796875 0 4.265625 1.84375q1.484375 1.828125 1.515625 5.25l0 3.140625zm-3.375 -3.4375q0 -2.125 -0.59375 -3.09375q-0.578125 -0.96875 -1.796875 -0.96875q-1.203125 0 -1.78125 0.921875q-0.5625 0.921875 -0.59375 2.875l0 4.15625q0 2.078125 0.5625 3.09375q0.578125 1.015625 1.828125 1.015625q1.25 0 1.796875 -0.96875q0.546875 -0.96875 0.578125 -2.984375l0 -4.046875zm16.785156 -2.03125q0 1.25 -0.625 2.21875q-0.609375 0.953125 -1.703125 1.515625q1.234375 0.609375 1.953125 1.65625q0.734375 1.046875 0.734375 2.46875q0 2.265625 -1.546875 3.59375q-1.546875 1.3125 -4.203125 1.3125q-2.65625 0 -4.21875 -1.328125q-1.5625 -1.328125 -1.5625 -3.578125q0 -1.421875 0.71875 -2.46875q0.734375 -1.0625 1.96875 -1.65625q-1.09375 -0.5625 -1.703125 -1.515625q-0.609375 -0.96875 -0.609375 -2.21875q0 -2.171875 1.453125 -3.46875q1.453125 -1.296875 3.9375 -1.296875q2.484375 0 3.9375 1.28125q1.46875 1.28125 1.46875 3.484375zm-3.03125 7.609375q0 -1.109375 -0.65625 -1.78125q-0.640625 -0.671875 -1.71875 -0.671875q-1.078125 0 -1.734375 0.671875q-0.640625 0.65625 -0.640625 1.78125q0 1.09375 0.625 1.765625q0.640625 0.65625 1.765625 0.65625q1.109375 0 1.734375 -0.640625q0.625 -0.640625 0.625 -1.78125zm-0.359375 -7.4375q0 -1.0 -0.53125 -1.59375q-0.515625 -0.609375 -1.484375 -0.609375q-0.9375 0 -1.46875 0.59375q-0.53125 0.578125 -0.53125 1.609375q0 1.015625 0.53125 1.640625q0.53125 0.609375 1.484375 0.609375q0.96875 0 1.484375 -0.609375q0.515625 -0.625 0.515625 -1.640625z" fill-rule="nonzero"/><path fill="#000000" fill-opacity="0.0" d="m180.54593 208.88452l80.50394 0" fill-rule="evenodd"/><path stroke="#0b5394" stroke-width="3.0" stroke-linejoin="round" stroke-linecap="butt" d="m180.54593 208.88452l80.50394 0" fill-rule="evenodd"/><path fill="#000000" fill-opacity="0.0" d="m180.54593 218.26772l80.50394 0" fill-rule="evenodd"/><path stroke="#0b5394" stroke-width="3.0" stroke-linejoin="round" stroke-linecap="butt" d="m180.54593 218.26772l80.50394 0" fill-rule="evenodd"/><path fill="#000000" fill-opacity="0.0" d="m180.54593 227.65355l80.50394 0" fill-rule="evenodd"/><path stroke="#0b5394" stroke-width="3.0" stroke-linejoin="round" stroke-linecap="butt" d="m180.54593 227.65355l80.50394 0" fill-rule="evenodd"/><path fill="#000000" fill-opacity="0.0" d="m295.22308 166.36482l80.50394 0" fill-rule="evenodd"/><path stroke="#0b5394" stroke-width="3.0" stroke-linejoin="round" stroke-linecap="butt" d="m295.22308 166.36482l80.50394 0" fill-rule="evenodd"/><path fill="#000000" fill-opacity="0.0" d="m295.22308 175.74803l80.50394 0" fill-rule="evenodd"/><path stroke="#0b5394" stroke-width="3.0" stroke-linejoin="round" stroke-linecap="butt" d="m295.22308 175.74803l80.50394 0" fill-rule="evenodd"/><path fill="#000000" fill-opacity="0.0" d="m295.22308 185.13387l80.50394 0" fill-rule="evenodd"/><path stroke="#0b5394" stroke-width="3.0" stroke-linejoin="round" stroke-linecap="butt" d="m295.22308 185.13387l80.50394 0" fill-rule="evenodd"/><path fill="#d9d9d9" d="m25.706106 368.0105l-13.263875 -13.976257l-0.058959007 -204.35445l13.263874 13.976273z" fill-rule="evenodd"/><path stroke="#000000" stroke-width="3.0" stroke-linejoin="round" stroke-linecap="butt" d="m25.706106 368.0105l-13.263875 -13.976257l-0.058959007 -204.35445l13.263874 13.976273z" fill-rule="evenodd"/></g></svg>