<svg version="1.1" viewBox="0.0 0.0 727.6614173228346 24.0" fill="none" stroke="none" stroke-linecap="square" stroke-miterlimit="10" xmlns:xlink="http://www.w3.org/1999/xlink" xmlns="http://www.w3.org/2000/svg"><clipPath id="p.0"><path d="m0 0l727.66144 0l0 24.0l-727.66144 0l0 -24.0z" clip-rule="nonzero"/></clipPath><g clip-path="url(#p.0)"><path fill="#000000" fill-opacity="0.0" d="m0 0l727.66144 0l0 24.0l-727.66144 0z" fill-rule="evenodd"/><path fill="#f2f5f7" d="m2.7296588 2.1757686l144.44095 0l0 19.590551l-144.44095 0z" fill-rule="evenodd"/><path stroke="#434343" stroke-width="4.0" stroke-linejoin="round" stroke-linecap="butt" d="m2.7296588 2.1757686l144.44095 0l0 19.590551l-144.44095 0z" fill-rule="evenodd"/><path fill="#cacaca" d="m147.17061 2.1757686l144.44093 0l0 19.590551l-144.44093 0z" fill-rule="evenodd"/><path stroke="#434343" stroke-width="4.0" stroke-linejoin="round" stroke-linecap="butt" d="m147.17061 2.1757686l144.44093 0l0 19.590551l-144.44093 0z" fill-rule="evenodd"/><path fill="#998fc7" d="m436.0525 2.1757686l144.44092 0l0 19.590551l-144.44092 0z" fill-rule="evenodd"/><path stroke="#434343" stroke-width="4.0" stroke-linejoin="round" stroke-linecap="butt" d="m436.0525 2.1757686l144.44092 0l0 19.590551l-144.44092 0z" fill-rule="evenodd"/><path fill="#c9c3e6" d="m291.61154 2.1757686l144.44095 0l0 19.590551l-144.44095 0z" fill-rule="evenodd"/><path stroke="#434343" stroke-width="4.0" stroke-linejoin="round" stroke-linecap="butt" d="m291.61154 2.1757686l144.44095 0l0 19.590551l-144.44095 0z" fill-rule="evenodd"/><path fill="#333447" d="m580.4934 2.1757686l144.44098 0l0 19.590551l-144.44098 0z" fill-rule="evenodd"/><path stroke="#434343" stroke-width="4.0" stroke-linejoin="round" stroke-linecap="butt" d="m580.4934 2.1757686l144.44098 0l0 19.590551l-144.44098 0z" fill-rule="evenodd"/></g></svg>