<svg version="1.1" viewBox="0.0 0.0 500.5826771653543 484.04199475065616" fill="none" stroke="none" stroke-linecap="square" stroke-miterlimit="10" xmlns:xlink="http://www.w3.org/1999/xlink" xmlns="http://www.w3.org/2000/svg"><clipPath id="p.0"><path d="m0 0l500.58267 0l0 484.042l-500.58267 0l0 -484.042z" clip-rule="nonzero"/></clipPath><g clip-path="url(#p.0)"><path fill="#000000" fill-opacity="0.0" d="m0 0l500.58267 0l0 484.042l-500.58267 0z" fill-rule="evenodd"/><path fill="#434343" d="m33.356956 70.65233l0 0c0 -39.020203 31.632126 -70.65233 70.65233 -70.65233l292.17566 0l0 0c18.73816 0 36.708862 7.4437065 49.95874 20.693588c13.249878 13.249882 20.693604 31.220581 20.693604 49.95874l0 282.60083c0 39.020203 -31.632141 70.65234 -70.65234 70.65234l-292.17566 0c-39.020203 0 -70.65233 -31.632141 -70.65233 -70.65234z" fill-rule="evenodd"/><path fill="#434343" d="m88.74803 347.54886l0 0c0 -8.430847 6.834549 -15.265381 15.265396 -15.265381l61.059753 0l0 0c4.048645 0 7.9314575 1.6083069 10.794266 4.4711304c2.8628235 2.862793 4.4711304 6.7456055 4.4711304 10.7942505l0 120.71332c0 8.430817 -6.834549 15.265381 -15.265396 15.265381l-61.059753 0c-8.430847 0 -15.265396 -6.834564 -15.265396 -15.265381z" fill-rule="evenodd"/><path fill="#434343" d="m315.61154 347.54886l0 0c0 -8.430847 6.834564 -15.265381 15.265411 -15.265381l61.059753 0l0 0c4.048645 0 7.9314575 1.6083069 10.7942505 4.4711304c2.8628235 2.862793 4.4711304 6.7456055 4.4711304 10.7942505l0 120.71332c0 8.430817 -6.8345337 15.265381 -15.265381 15.265381l-61.059753 0c-8.430847 0 -15.265411 -6.834564 -15.265411 -15.265381z" fill-rule="evenodd"/><path fill="#ffffff" d="m57.356956 352.9134l0 0c0 -20.978119 17.006126 -37.984253 37.984253 -37.984253l0 0c10.074051 0 19.735489 4.001892 26.858917 11.125336c7.123436 7.123413 11.125328 16.784851 11.125328 26.858917l0 0c0 20.978119 -17.006126 37.984253 -37.984245 37.984253l0 0c-20.978127 0 -37.984253 -17.006134 -37.984253 -37.984253z" fill-rule="evenodd"/><path fill="#ffffff" d="m367.2021 352.9134l0 0c0 -20.978119 17.006134 -37.984253 37.984253 -37.984253l0 0c10.074066 0 19.735504 4.001892 26.858948 11.125336c7.123413 7.123413 11.125305 16.784851 11.125305 26.858917l0 0c0 20.978119 -17.006104 37.984253 -37.984253 37.984253l0 0c-20.978119 0 -37.984253 -17.006134 -37.984253 -37.984253z" fill-rule="evenodd"/><path fill="#ffffff" d="m78.973755 91.85302l166.14172 0l0 207.1181l-166.14172 0z" fill-rule="evenodd"/><path fill="#ffffff" d="m184.60104 29.485565l130.99213 0l0 25.574802l-130.99213 0z" fill-rule="evenodd"/><path fill="#ffffff" d="m254.71129 91.85302l161.00786 0l0 207.1181l-161.00786 0z" fill-rule="evenodd"/><path fill="#434343" d="m500.1942 84.32292l0 94.78198c0 1.1304932 -0.44906616 2.2146912 -1.2484741 3.0140839c-0.79937744 0.79937744 -1.8835754 1.2484589 -3.0140686 1.2484589l-21.312256 0c-4.5776367E-4 0 -8.544922E-4 -3.8146973E-4 -8.544922E-4 -8.544922E-4l8.544922E-4 -103.30623l0 0c0 -4.7302246E-4 3.9672852E-4 -8.544922E-4 8.544922E-4 -8.544922E-4l21.311401 8.544922E-4l0 0c2.3541565 0 4.2625427 1.9084167 4.2625427 4.262558z" fill-rule="evenodd"/><path fill="#434343" d="m0 179.1049l0 -94.78198c0 -1.1305008 0.44908905 -2.2146988 1.2484727 -3.0140839c0.79938364 -0.7993851 1.8835804 -1.2484741 3.0140796 -1.2484741l21.31225 0c4.7683716E-4 0 8.621216E-4 3.8909912E-4 8.621216E-4 8.621216E-4l-8.621216E-4 103.30622l0 0c0 4.8828125E-4 -3.8528442E-4 8.69751E-4 -8.6021423E-4 8.69751E-4l-21.31139 -8.69751E-4l0 0c-2.3541427 0 -4.2625523 -1.9084015 -4.2625523 -4.2625427z" fill-rule="evenodd"/></g></svg>