<svg version="1.1" viewBox="0.0 0.0 394.71128608923885 409.36745406824144" fill="none" stroke="none" stroke-linecap="square" stroke-miterlimit="10" xmlns:xlink="http://www.w3.org/1999/xlink" xmlns="http://www.w3.org/2000/svg"><clipPath id="p.0"><path d="m0 0l394.71127 0l0 409.36746l-394.71127 0l0 -409.36746z" clip-rule="nonzero"/></clipPath><g clip-path="url(#p.0)"><path fill="#000000" fill-opacity="0.0" d="m0 0l394.71127 0l0 409.36746l-394.71127 0z" fill-rule="evenodd"/><path fill="#ffd966" d="m76.850075 95.04501l0 0c60.551277 -66.55249 163.58923 -71.41743 230.14172 -10.866142l0 0c31.959656 29.077751 51.059204 69.66047 53.096985 112.82041c2.0378113 43.159943 -13.153076 85.36168 -42.230835 117.321335l0 0c-60.55127 66.55246 -163.58923 71.41742 -230.14172 10.866119l0 0c-66.55249 -60.55127 -71.41743 -163.58923 -10.866142 -230.14172z" fill-rule="evenodd"/><path stroke="#000000" stroke-width="24.0" stroke-linejoin="round" stroke-linecap="butt" d="m76.850075 95.04501l0 0c60.551277 -66.55249 163.58923 -71.41743 230.14172 -10.866142l0 0c31.959656 29.077751 51.059204 69.66047 53.096985 112.82041c2.0378113 43.159943 -13.153076 85.36168 -42.230835 117.321335l0 0c-60.55127 66.55246 -163.58923 71.41742 -230.14172 10.866119l0 0c-66.55249 -60.55127 -71.41743 -163.58923 -10.866142 -230.14172z" fill-rule="evenodd"/><path fill="#6aa84f" d="m331.8191 328.87296c-49.01523 53.070435 -124.66049 72.34631 -193.09604 49.20459c-68.43555 -23.141724 -116.85759 -84.37137 -123.60463 -156.298c-6.747032 -71.92662 29.443268 -141.09329 92.381226 -176.55843l89.85674 159.46371z" fill-rule="evenodd"/><path stroke="#000000" stroke-width="24.0" stroke-linejoin="round" stroke-linecap="butt" d="m331.8191 328.87296c-49.01523 53.070435 -124.66049 72.34631 -193.09604 49.20459c-68.43555 -23.141724 -116.85759 -84.37137 -123.60463 -156.298c-6.747032 -71.92662 29.443268 -141.09329 92.381226 -176.55843l89.85674 159.46371z" fill-rule="evenodd"/></g></svg>