<svg version="1.1" viewBox="0.0 0.0 1082.0 269.36745406824144" fill="none" stroke="none" stroke-linecap="square" stroke-miterlimit="10" xmlns:xlink="http://www.w3.org/1999/xlink" xmlns="http://www.w3.org/2000/svg"><clipPath id="p.0"><path d="m0 0l1082.0 0l0 269.36746l-1082.0 0l0 -269.36746z" clip-rule="nonzero"/></clipPath><g clip-path="url(#p.0)"><path fill="#000000" fill-opacity="0.0" d="m0 0l1082.0 0l0 269.36746l-1082.0 0z" fill-rule="evenodd"/><path fill="#000000" fill-opacity="0.0" d="m89.512054 255.55952l73.51178 -36.755905l0 -96.22047l-73.51178 -36.755905l-73.51178 36.755905l0 96.22047z" fill-rule="evenodd"/><path stroke="#674ea7" stroke-width="16.0" stroke-linejoin="round" stroke-linecap="butt" d="m89.512054 255.55952l73.51178 -36.755905l0 -96.22047l-73.51178 -36.755905l-73.51178 36.755905l0 96.22047z" fill-rule="evenodd"/><path fill="#000000" fill-opacity="0.0" d="m1158.0007 106.33071l-1059.496 0l0 144.7244l1059.496 0z" fill-rule="evenodd"/><path fill="#434343" d="m230.63568 154.20541q11.515625 0 18.296875 7.6875q6.78125 7.6875 6.78125 21.125l0 38.875l-20.515625 0l0 -36.484375q0 -6.71875 -3.546875 -10.5q-3.53125 -3.78125 -9.421875 -3.78125q-6.234375 0 -9.90625 3.96875q-3.65625 3.953125 -3.65625 11.28125l0 35.515625l-20.515625 0l0 -88.796875l20.515625 0l0 34.078125q2.890625 -6.0 8.578125 -9.484375q5.703125 -3.484375 13.390625 -3.484375zm69.963684 -0.109375q9.953125 0 17.8125 4.140625q7.859375 4.140625 12.359375 11.9375q4.5 7.796875 4.5 18.234375q0 10.4375 -4.5 18.25q-4.5 7.796875 -12.359375 11.9375q-7.859375 4.140625 -17.8125 4.140625q-9.96875 0 -17.890625 -4.140625q-7.921875 -4.140625 -12.421875 -11.9375q-4.5 -7.8125 -4.5 -18.25q0 -10.4375 4.5 -18.234375q4.5 -7.796875 12.421875 -11.9375q7.921875 -4.140625 17.890625 -4.140625zm0 17.75q-5.890625 0 -9.90625 4.265625q-4.015625 4.265625 -4.015625 12.296875q0 8.046875 4.015625 12.25q4.015625 4.1875 9.90625 4.1875q5.875 0 9.828125 -4.1875q3.96875 -4.203125 3.96875 -12.25q0 -8.03125 -3.96875 -12.296875q-3.953125 -4.265625 -9.828125 -4.265625zm132.1174 -17.640625q12.359375 0 19.4375 7.625q7.078125 7.625 7.078125 21.1875l0 38.875l-20.40625 0l0 -36.484375q0 -6.359375 -3.421875 -9.890625q-3.40625 -3.546875 -9.296875 -3.546875q-6.109375 0 -9.65625 3.78125q-3.53125 3.78125 -3.53125 10.625l0 35.515625l-20.53125 0l0 -36.484375q0 -6.359375 -3.359375 -9.890625q-3.359375 -3.546875 -9.234375 -3.546875q-6.125 0 -9.734375 3.71875q-3.59375 3.71875 -3.59375 10.6875l0 35.515625l-20.515594 0l0 -66.953125l20.515594 0l0 11.390625q2.640625 -5.640625 8.09375 -8.875q5.46875 -3.25 12.796875 -3.25q7.671875 0 13.546875 3.546875q5.890625 3.546875 8.890625 10.140625q3.484375 -6.234375 9.53125 -9.953125q6.0625 -3.734375 13.390625 -3.734375zm65.631775 -0.109375q7.6875 0 13.203125 3.484375q5.5156555 3.46875 8.1562805 9.46875l0 -12.109375l20.40625 0l0 66.953125l-20.40625 0l0 -12.125q-2.640625 6.0 -8.1562805 9.484375q-5.515625 3.484375 -13.203125 3.484375q-8.28125 0 -14.828125 -4.140625q-6.53125 -4.140625 -10.3125 -11.9375q-3.78125 -7.8125 -3.78125 -18.25q0 -10.5625 3.78125 -18.296875q3.78125 -7.734375 10.3125 -11.875q6.546875 -4.140625 14.828125 -4.140625zm6.609375 18.0q-6.609375 0 -10.625 4.328125q-4.015625 4.3125 -4.015625 11.984375q0 7.6875 4.015625 12.015625q4.015625 4.3125 10.625 4.3125q6.46875 0 10.6094055 -4.4375q4.140625 -4.453125 4.140625 -11.890625q0 -7.5625 -4.140625 -11.9375q-4.1406555 -4.375 -10.6094055 -4.375zm73.672455 -18.0q12.71875 0 20.34375 6.359375q7.625 6.359375 9.53125 16.796875l-19.1875 0q-0.84375 -4.078125 -3.78125 -6.421875q-2.9375 -2.34375 -7.390625 -2.34375q-3.46875 0 -5.28125 1.5q-1.796875 1.5 -1.796875 4.265625q0 3.125 3.296875 4.6875q3.3125 1.546875 10.390625 3.109375q7.671875 1.796875 12.59375 3.671875q4.921875 1.859375 8.515625 6.0625q3.609375 4.1875 3.609375 11.265625q0 5.765625 -3.125 10.203125q-3.109375 4.4375 -9.0 6.96875q-5.875 2.515625 -13.921875 2.515625q-13.546875 0 -21.71875 -6.0q-8.15625 -6.0 -9.953125 -17.15625l19.796875 0q0.484375 4.3125 3.65625 6.59375q3.1875 2.28125 8.21875 2.28125q3.484375 0 5.28125 -1.625q1.796875 -1.625 1.796875 -4.25q0 -3.484375 -3.296875 -4.984375q-3.296875 -1.5 -10.734375 -3.1875q-7.4375 -1.5625 -12.25 -3.359375q-4.796875 -1.796875 -8.28125 -5.8125q-3.46875 -4.03125 -3.46875 -10.984375q0 -9.0 6.828125 -14.578125q6.84375 -5.578125 19.328125 -5.578125zm105.006226 -17.890625q16.203125 0 26.8125 8.53125q10.625 8.515625 13.75 23.03125l-21.71875 0q-2.40625 -5.875 -7.390625 -9.234375q-4.984375 -3.359375 -11.8125 -3.359375q-9.0 0 -14.53125 6.609375q-5.515625 6.59375 -5.515625 17.625q0 11.046875 5.515625 17.59375q5.53125 6.53125 14.53125 6.53125q6.828125 0 11.8125 -3.359375q4.984375 -3.359375 7.390625 -9.125l21.71875 0q-3.125 14.40625 -13.75 22.984375q-10.609375 8.578125 -26.8125 8.578125q-12.359375 0 -21.71875 -5.453125q-9.359375 -5.46875 -14.46875 -15.296875q-5.09375 -9.84375 -5.09375 -22.453125q0 -12.59375 5.09375 -22.4375q5.109375 -9.84375 14.46875 -15.296875q9.359375 -5.46875 21.71875 -5.46875zm83.40234 17.890625q9.953125 0 17.8125 4.140625q7.859375 4.140625 12.359375 11.9375q4.5 7.796875 4.5 18.234375q0 10.4375 -4.5 18.25q-4.5 7.796875 -12.359375 11.9375q-7.859375 4.140625 -17.8125 4.140625q-9.96875 0 -17.890625 -4.140625q-7.921875 -4.140625 -12.421875 -11.9375q-4.5 -7.8125 -4.5 -18.25q0 -10.4375 4.5 -18.234375q4.5 -7.796875 12.421875 -11.9375q7.921875 -4.140625 17.890625 -4.140625zm0 17.75q-5.890625 0 -9.90625 4.265625q-4.015625 4.265625 -4.015625 12.296875q0 8.046875 4.015625 12.25q4.015625 4.1875 9.90625 4.1875q5.875 0 9.828125 -4.1875q3.96875 -4.203125 3.96875 -12.25q0 -8.03125 -3.96875 -12.296875q-3.953125 -4.265625 -9.828125 -4.265625zm111.96118 -16.90625l0 66.953125l-20.640625 0l0 -12.125q-2.890625 5.890625 -8.59375 9.375q-5.6875 3.46875 -13.25 3.46875q-11.515625 0 -18.296875 -7.671875q-6.78125 -7.6875 -6.78125 -21.125l0 -38.875l20.390625 0l0 36.359375q0 6.828125 3.53125 10.609375q3.546875 3.78125 9.546875 3.78125q6.25 0 9.84375 -3.953125q3.609375 -3.96875 3.609375 -11.28125l0 -35.515625l20.640625 0zm56.63501 -0.734375q11.515625 0 18.296875 7.6875q6.78125 7.6875 6.78125 21.125l0 38.875l-20.515625 0l0 -36.484375q0 -6.71875 -3.546875 -10.5q-3.53125 -3.78125 -9.421875 -3.78125q-6.234375 0 -9.90625 3.96875q-3.65625 3.953125 -3.65625 11.28125l0 35.515625l-20.515625 0l0 -66.953125l20.515625 0l0 12.234375q2.890625 -6.0 8.578125 -9.484375q5.703125 -3.484375 13.390625 -3.484375zm76.55737 50.046875l0 17.640625l-9.234375 0q-11.765625 0 -18.3125 -5.8125q-6.53125 -5.828125 -6.53125 -19.265625l0 -24.609375l-9.0 0l0 -17.265625l9.0 0l0 -16.453125l20.515625 0l0 16.453125l13.4375 0l0 17.265625l-13.4375 0l0 24.96875q0 3.953125 1.625 5.515625q1.625 1.5625 5.453125 1.5625l6.484375 0zm29.643066 0.484375l30.953125 0l0 17.15625l-53.390625 0l0 -16.203125l28.796875 -33.71875l-28.328125 0l0 -17.03125l51.71875 0l0 16.1875l-29.75 33.609375z" fill-rule="nonzero"/><path fill="#000000" fill-opacity="0.0" d="m156.74019 98.331184l-134.4567 0l0 144.7244l134.4567 0z" fill-rule="evenodd"/><path fill="#434343" d="m124.96997 126.07339l0 17.406242l-24.578125 0l0 73.09375l-22.015625 0l0 -73.09375l-24.328129 0l0 -17.406242l70.921875 0z" fill-rule="nonzero"/><path fill="#000000" fill-opacity="0.0" d="m261.55597 127.57433l-48.992096 -24.496063l0 -64.14174l48.992096 -24.496063l48.992096 24.496063l0 64.14174z" fill-rule="evenodd"/><path stroke="#674ea7" stroke-width="16.0" stroke-linejoin="round" stroke-linecap="butt" d="m261.55597 127.57433l-48.992096 -24.496063l0 -64.14174l48.992096 -24.496063l48.992096 24.496063l0 64.14174z" fill-rule="evenodd"/><path fill="#000000" fill-opacity="0.0" d="m164.01343 126.52016l47.55905 -23.055115" fill-rule="evenodd"/><path stroke="#674ea7" stroke-width="16.0" stroke-linejoin="round" stroke-linecap="butt" d="m164.01343 126.52016l47.55905 -23.055115" fill-rule="evenodd"/></g></svg>