<svg version="1.1" viewBox="0.0 0.0 435.5275590551181 500.5826771653543" fill="none" stroke="none" stroke-linecap="square" stroke-miterlimit="10" xmlns:xlink="http://www.w3.org/1999/xlink" xmlns="http://www.w3.org/2000/svg"><clipPath id="p.0"><path d="m0 0l435.52756 0l0 500.58267l-435.52756 0l0 -500.58267z" clip-rule="nonzero"/></clipPath><g clip-path="url(#p.0)"><path fill="#000000" fill-opacity="0.0" d="m0 0l435.52756 0l0 500.58267l-435.52756 0z" fill-rule="evenodd"/><path fill="#434343" d="m0 70.65233l0 0c0 -39.020203 31.632126 -70.65233 70.65233 -70.65233l292.17566 0l0 0c18.73816 0 36.708862 7.4437065 49.95874 20.693588c13.249908 13.249882 20.693604 31.220581 20.693604 49.95874l0 282.60083c0 39.020203 -31.632141 70.65234 -70.65234 70.65234l-292.17566 0c-39.020203 0 -70.65233 -31.632141 -70.65233 -70.65234z" fill-rule="evenodd"/><path fill="#434343" d="m77.750656 363.54886l0 0c0 -8.430847 6.834549 -15.265381 15.265396 -15.265381l61.059753 0l0 0c4.048645 0 7.9314575 1.6083069 10.794266 4.4711304c2.8628235 2.862793 4.4711304 6.7456055 4.4711304 10.7942505l0 120.71332c0 8.430817 -6.834549 15.265381 -15.265396 15.265381l-61.059753 0c-8.430847 0 -15.265396 -6.834564 -15.265396 -15.265381z" fill-rule="evenodd"/><path fill="#434343" d="m273.37796 363.54886l0 0c0 -8.430847 6.8345337 -15.265381 15.265381 -15.265381l61.059753 0l0 0c4.048645 0 7.9314575 1.6083069 10.794281 4.4711304c2.8628235 2.862793 4.4711304 6.7456055 4.4711304 10.7942505l0 120.71332c0 8.430817 -6.834564 15.265381 -15.265411 15.265381l-61.059753 0c-8.430847 0 -15.265381 -6.834564 -15.265381 -15.265381z" fill-rule="evenodd"/><path fill="#ffffff" d="m55.2021 352.9134l0 0c0 -20.978119 17.00613 -37.984253 37.98425 -37.984253l0 0c10.074051 0 19.735497 4.001892 26.858925 11.125336c7.1234283 7.123413 11.125336 16.784851 11.125336 26.858917l0 0c0 20.978119 -17.006134 37.984253 -37.98426 37.984253l0 0c-20.978119 0 -37.98425 -17.006134 -37.98425 -37.984253z" fill-rule="evenodd"/><path fill="#ffffff" d="m298.0656 352.9134l0 0c0 -20.978119 17.006134 -37.984253 37.984253 -37.984253l0 0c10.074066 0 19.735504 4.001892 26.858917 11.125336c7.1234436 7.123413 11.125336 16.784851 11.125336 26.858917l0 0c0 20.978119 -17.006134 37.984253 -37.984253 37.984253l0 0c-20.978119 0 -37.984253 -17.006134 -37.984253 -37.984253z" fill-rule="evenodd"/><path fill="#ffffff" d="m45.6168 75.85302l339.74805 0l0 193.85825l-339.74805 0z" fill-rule="evenodd"/><path fill="#ffffff" d="m151.2441 29.485565l130.99211 0l0 25.574802l-130.99211 0z" fill-rule="evenodd"/></g></svg>