<svg version="1.1" viewBox="0.0 0.0 768.0 747.3674540682415" fill="none" stroke="none" stroke-linecap="square" stroke-miterlimit="10" xmlns:xlink="http://www.w3.org/1999/xlink" xmlns="http://www.w3.org/2000/svg"><clipPath id="p.0"><path d="m0 0l768.0 0l0 747.36743l-768.0 0l0 -747.36743z" clip-rule="nonzero"/></clipPath><g clip-path="url(#p.0)"><path fill="#000000" fill-opacity="0.0" d="m0 0l768.0 0l0 747.36743l-768.0 0z" fill-rule="evenodd"/><path fill="#000000" fill-opacity="0.0" d="m61.25704 118.89211l0 0c0 -58.10268 47.10153 -105.20421 105.20421 -105.20421l435.0719 0l0 0c27.901917 0 54.66101 11.083983 74.390625 30.813599c19.729614 19.72961 30.813599 46.488712 30.813599 74.39061l0 420.80417c0 58.10266 -47.101562 105.20422 -105.20422 105.20422l-435.0719 0c-58.102676 0 -105.20421 -47.101562 -105.20421 -105.20422z" fill-rule="evenodd"/><path stroke="#434343" stroke-width="12.0" stroke-linejoin="round" stroke-linecap="butt" d="m61.25704 118.89211l0 0c0 -58.10268 47.10153 -105.20421 105.20421 -105.20421l435.0719 0l0 0c27.901917 0 54.66101 11.083983 74.390625 30.813599c19.729614 19.72961 30.813599 46.488712 30.813599 74.39061l0 420.80417c0 58.10266 -47.101562 105.20422 -105.20422 105.20422l-435.0719 0c-58.102676 0 -105.20421 -47.101562 -105.20421 -105.20422z" fill-rule="evenodd"/><path fill="#000000" fill-opacity="0.0" d="m143.73866 531.2128l0 0c0 -12.553528 10.1766205 -22.730133 22.730118 -22.730133l90.917725 0l0 0c6.028412 0 11.8098755 2.3947754 16.072601 6.657501c4.262726 4.2626953 6.657501 10.044189 6.657501 16.072632l0 179.73663c0 12.553467 -10.176605 22.730103 -22.730103 22.730103l-90.917725 0c-12.553497 0 -22.730118 -10.176636 -22.730118 -22.730103z" fill-rule="evenodd"/><path stroke="#434343" stroke-width="12.0" stroke-linejoin="round" stroke-linecap="butt" d="m143.73866 531.2128l0 0c0 -12.553528 10.1766205 -22.730133 22.730118 -22.730133l90.917725 0l0 0c6.028412 0 11.8098755 2.3947754 16.072601 6.657501c4.262726 4.2626953 6.657501 10.044189 6.657501 16.072632l0 179.73663c0 12.553467 -10.176605 22.730103 -22.730103 22.730103l-90.917725 0c-12.553497 0 -22.730118 -10.176636 -22.730118 -22.730103z" fill-rule="evenodd"/><path fill="#000000" fill-opacity="0.0" d="m481.5561 531.2128l0 0c0 -12.553528 10.176605 -22.730133 22.730103 -22.730133l90.917725 0l0 0c6.0284424 0 11.809937 2.3947754 16.072632 6.657501c4.2626953 4.2626953 6.6574707 10.044189 6.6574707 16.072632l0 179.73663c0 12.553467 -10.176575 22.730103 -22.730103 22.730103l-90.917725 0c-12.553497 0 -22.730103 -10.176636 -22.730103 -22.730103z" fill-rule="evenodd"/><path stroke="#434343" stroke-width="12.0" stroke-linejoin="round" stroke-linecap="butt" d="m481.5561 531.2128l0 0c0 -12.553528 10.176605 -22.730133 22.730103 -22.730133l90.917725 0l0 0c6.0284424 0 11.809937 2.3947754 16.072632 6.657501c4.2626953 4.2626953 6.6574707 10.044189 6.6574707 16.072632l0 179.73663c0 12.553467 -10.176575 22.730103 -22.730103 22.730103l-90.917725 0c-12.553497 0 -22.730103 -10.176636 -22.730103 -22.730103z" fill-rule="evenodd"/><path fill="#000000" fill-opacity="0.0" d="m108.90753 518.84503l0 0c0 -42.47812 34.435287 -76.91342 76.913376 -76.91342l0 0c20.398712 0 39.96193 8.103363 54.385986 22.527435c14.424057 14.424042 22.52742 33.987274 22.52742 54.385986l0 0c0 42.47809 -34.435303 76.91339 -76.91341 76.91339l0 0c-42.47809 0 -76.913376 -34.435303 -76.913376 -76.91339z" fill-rule="evenodd"/><path stroke="#434343" stroke-width="12.0" stroke-linejoin="round" stroke-linecap="butt" d="m108.90753 518.84503l0 0c0 -42.47812 34.435287 -76.91342 76.913376 -76.91342l0 0c20.398712 0 39.96193 8.103363 54.385986 22.527435c14.424057 14.424042 22.52742 33.987274 22.52742 54.385986l0 0c0 42.47809 -34.435303 76.91339 -76.91341 76.91339l0 0c-42.47809 0 -76.913376 -34.435303 -76.913376 -76.91339z" fill-rule="evenodd"/><path fill="#000000" fill-opacity="0.0" d="m505.75653 518.84503l0 0c0 -42.47812 34.435303 -76.91342 76.91339 -76.91342l0 0c20.398682 0 39.961914 8.103363 54.385986 22.527435c14.424072 14.424042 22.527405 33.987274 22.527405 54.385986l0 0c0 42.47809 -34.435303 76.91339 -76.91339 76.91339l0 0c-42.47809 0 -76.91339 -34.435303 -76.91339 -76.91339z" fill-rule="evenodd"/><path stroke="#434343" stroke-width="12.0" stroke-linejoin="round" stroke-linecap="butt" d="m505.75653 518.84503l0 0c0 -42.47812 34.435303 -76.91342 76.91339 -76.91342l0 0c20.398682 0 39.961914 8.103363 54.385986 22.527435c14.424072 14.424042 22.527405 33.987274 22.527405 54.385986l0 0c0 42.47809 -34.435303 76.91339 -76.91339 76.91339l0 0c-42.47809 0 -76.91339 -34.435303 -76.91339 -76.91339z" fill-rule="evenodd"/><path fill="#000000" fill-opacity="0.0" d="m129.184 114.7261l247.40157 0l0 308.40945l-247.40157 0z" fill-rule="evenodd"/><path stroke="#434343" stroke-width="12.0" stroke-linejoin="round" stroke-linecap="butt" d="m129.184 114.7261l247.40157 0l0 308.40945l-247.40157 0z" fill-rule="evenodd"/><path fill="#000000" fill-opacity="0.0" d="m286.47125 57.594105l195.05515 0l0 38.110233l-195.05515 0z" fill-rule="evenodd"/><path stroke="#434343" stroke-width="12.0" stroke-linejoin="round" stroke-linecap="butt" d="m286.47125 57.594105l195.05515 0l0 38.110233l-195.05515 0z" fill-rule="evenodd"/><path fill="#000000" fill-opacity="0.0" d="m390.87085 114.7261l239.74805 0l0 308.40945l-239.74805 0z" fill-rule="evenodd"/><path stroke="#434343" stroke-width="12.0" stroke-linejoin="round" stroke-linecap="butt" d="m390.87085 114.7261l239.74805 0l0 308.40945l-239.74805 0z" fill-rule="evenodd"/><path fill="#000000" fill-opacity="0.0" d="m764.41406 151.95886l0 115.71655c0 5.053711 -2.0075684 9.900452 -5.5811157 13.473999c-3.5735474 3.5735168 -8.420288 5.5811157 -13.473999 5.5811157l-19.055115 0c-7.324219E-4 0 -0.0012817383 -5.79834E-4 -0.0012817383 -0.0012817383l0.0012817383 -153.8255l0 0c0 -7.019043E-4 5.493164E-4 -0.0012817383 0.0012817383 -0.0012817383l19.053833 0.0012817383l0 0c10.523865 0 19.055115 8.531265 19.055115 19.055115z" fill-rule="evenodd"/><path stroke="#434343" stroke-width="12.0" stroke-linejoin="round" stroke-linecap="butt" d="m764.41406 151.95886l0 115.71655c0 5.053711 -2.0075684 9.900452 -5.5811157 13.473999c-3.5735474 3.5735168 -8.420288 5.5811157 -13.473999 5.5811157l-19.055115 0c-7.324219E-4 0 -0.0012817383 -5.79834E-4 -0.0012817383 -0.0012817383l0.0012817383 -153.8255l0 0c0 -7.019043E-4 5.493164E-4 -0.0012817383 0.0012817383 -0.0012817383l19.053833 0.0012817383l0 0c10.523865 0 19.055115 8.531265 19.055115 19.055115z" fill-rule="evenodd"/><path fill="#000000" fill-opacity="0.0" d="m3.5859363 267.68057l0 -115.71654c0 -5.0537415 2.0075867 -9.900482 5.581115 -13.474014c3.5735273 -3.5735168 8.420271 -5.5811157 13.474003 -5.5811157l19.055117 0c7.095337E-4 0 0.0012817383 5.79834E-4 0.0012817383 0.0012817383l-0.0012817383 153.8255l0 0c0 7.019043E-4 -5.722046E-4 0.0012817383 -0.0012817383 0.0012817383l-19.053835 -0.0012817383l0 0c-10.523851 0 -19.055119 -8.5312805 -19.055119 -19.055115z" fill-rule="evenodd"/><path stroke="#434343" stroke-width="12.0" stroke-linejoin="round" stroke-linecap="butt" d="m3.5859363 267.68057l0 -115.71654c0 -5.0537415 2.0075867 -9.900482 5.581115 -13.474014c3.5735273 -3.5735168 8.420271 -5.5811157 13.474003 -5.5811157l19.055117 0c7.095337E-4 0 0.0012817383 5.79834E-4 0.0012817383 0.0012817383l-0.0012817383 153.8255l0 0c0 7.019043E-4 -5.722046E-4 0.0012817383 -0.0012817383 0.0012817383l-19.053835 -0.0012817383l0 0c-10.523851 0 -19.055119 -8.5312805 -19.055119 -19.055115z" fill-rule="evenodd"/></g></svg>