<svg version="1.1" viewBox="0.0 0.0 684.0 265.36745406824144" fill="none" stroke="none" stroke-linecap="square" stroke-miterlimit="10" xmlns:xlink="http://www.w3.org/1999/xlink" xmlns="http://www.w3.org/2000/svg"><clipPath id="p.0"><path d="m0 0l684.0 0l0 265.36746l-684.0 0l0 -265.36746z" clip-rule="nonzero"/></clipPath><g clip-path="url(#p.0)"><path fill="#000000" fill-opacity="0.0" d="m0 0l684.0 0l0 265.36746l-684.0 0z" fill-rule="evenodd"/><path fill="#000000" fill-opacity="0.0" d="m699.98425 92.585304l-397.6693 0l0 144.7244l397.6693 0z" fill-rule="evenodd"/><path fill="#434343" d="m362.58704 194.06187l29.1875 0l0 16.765625l-51.078125 0l0 -90.49999l21.890625 0l0 73.73437zm66.43402 -55.546875q8.1875 0 14.078125 3.71875q5.890625 3.703125 8.703125 10.09375l0 -12.921875l21.765625 0l0 71.421875l-21.765625 0l0 -12.921875q-2.8125 6.390625 -8.703125 10.109375q-5.890625 3.703125 -14.078125 3.703125q-8.828125 0 -15.8125 -4.40625q-6.96875 -4.421875 -11.0 -12.734375q-4.03125 -8.328125 -4.03125 -19.46875q0 -11.25 4.03125 -19.5q4.03125 -8.265625 11.0 -12.671875q6.984375 -4.421875 15.8125 -4.421875zm7.046875 19.1875q-7.046875 0 -11.34375 4.609375q-4.28125 4.609375 -4.28125 12.796875q0 8.203125 4.28125 12.8125q4.296875 4.609375 11.34375 4.609375q6.90625 0 11.3125 -4.734375q4.421875 -4.75 4.421875 -12.6875q0 -8.0625 -4.421875 -12.734375q-4.40625 -4.671875 -11.3125 -4.671875zm97.14337 -19.1875q8.828125 0 15.796875 4.421875q6.984375 4.40625 11.015625 12.671875q4.03125 8.25 4.03125 19.5q0 11.140625 -4.03125 19.46875q-4.03125 8.3125 -11.015625 12.734375q-6.96875 4.40625 -15.796875 4.40625q-8.1875 0 -14.078125 -3.703125q-5.890625 -3.71875 -8.578125 -10.109375l0 12.921875l-21.890625 0l0 -94.71874l21.890625 0l0 36.218742q2.6875 -6.390625 8.578125 -10.09375q5.890625 -3.71875 14.078125 -3.71875zm-7.03125 19.1875q-6.921875 0 -11.34375 4.671875q-4.40625 4.671875 -4.40625 12.734375q0 7.9375 4.40625 12.6875q4.421875 4.734375 11.34375 4.734375q7.03125 0 11.3125 -4.609375q4.296875 -4.609375 4.296875 -12.8125q0 -8.1875 -4.296875 -12.796875q-4.28125 -4.609375 -11.3125 -4.609375zm75.25275 -19.1875q13.578125 0 21.703125 6.78125q8.125 6.78125 10.171875 17.921875l-20.484375 0q-0.890625 -4.359375 -4.03125 -6.84375q-3.125 -2.5 -7.859375 -2.5q-3.71875 0 -5.640625 1.59375q-1.921875 1.59375 -1.921875 4.546875q0 3.328125 3.515625 5.0q3.53125 1.65625 11.078125 3.3125q8.1875 1.921875 13.4375 3.90625q5.25 1.984375 9.09375 6.46875q3.84375 4.484375 3.84375 12.03125q0 6.140625 -3.328125 10.875q-3.328125 4.734375 -9.609375 7.421875q-6.265625 2.6875 -14.84375 2.6875q-14.46875 0 -23.171875 -6.390625q-8.703125 -6.40625 -10.625 -18.3125l21.125 0q0.515625 4.609375 3.90625 7.046875q3.390625 2.421875 8.765625 2.421875q3.71875 0 5.625 -1.71875q1.921875 -1.734375 1.921875 -4.546875q0 -3.703125 -3.515625 -5.296875q-3.515625 -1.609375 -11.453125 -3.40625q-7.9375 -1.65625 -13.0625 -3.578125q-5.109375 -1.921875 -8.828125 -6.203125q-3.71875 -4.296875 -3.71875 -11.71875q0 -9.609375 7.296875 -15.546875q7.296875 -5.953125 20.609375 -5.953125zm63.88379 50.421875l0 21.890625l-22.65625 0l0 -21.890625l22.65625 0z" fill-rule="nonzero"/><path fill="#000000" fill-opacity="0.0" d="m294.7389 92.584465l-134.45671 0l0 144.7244l134.45671 0z" fill-rule="evenodd"/><path fill="#434343" d="m227.95316 119.43604q17.28125 0 28.609375 9.093742q11.328125 9.078125 14.65625 24.5625l-23.171875 0q-2.546875 -6.265625 -7.859375 -9.84375q-5.3125 -3.59375 -12.609375 -3.59375q-9.609375 0 -15.5 7.046875q-5.875 7.03125 -5.875 18.8125q0 11.78125 5.875 18.765625q5.890625 6.96875 15.5 6.96875q7.296875 0 12.609375 -3.578125q5.3125 -3.59375 7.859375 -9.734375l23.171875 0q-3.328125 15.359375 -14.65625 24.515625q-11.328125 9.140625 -28.609375 9.140625q-13.171875 0 -23.15625 -5.8125q-9.984375 -5.828125 -15.4375 -16.328125q-5.4375 -10.5 -5.4375 -23.9375q0 -13.4375 5.4375 -23.9375q5.453125 -10.5 15.4375 -16.312492q9.984375 -5.828125 23.15625 -5.828125z" fill-rule="nonzero"/><path fill="#000000" fill-opacity="0.0" d="m227.51266 249.8115l-73.51178 -36.755905l0 -96.22047l73.51178 -36.755905l73.51178 36.755905l0 96.22047z" fill-rule="evenodd"/><path stroke="#45818e" stroke-width="16.0" stroke-linejoin="round" stroke-linecap="butt" d="m227.51266 249.8115l-73.51178 -36.755905l0 -96.22047l73.51178 -36.755905l73.51178 36.755905l0 96.22047z" fill-rule="evenodd"/><path fill="#000000" fill-opacity="0.0" d="m64.99106 123.322365l48.992104 -24.496063l0 -64.14174l-48.992104 -24.496063l-48.992104 24.496063l0 64.14174z" fill-rule="evenodd"/><path stroke="#45818e" stroke-width="16.0" stroke-linejoin="round" stroke-linecap="butt" d="m64.99106 123.322365l48.992104 -24.496063l0 -64.14174l-48.992104 -24.496063l-48.992104 24.496063l0 64.14174z" fill-rule="evenodd"/><path fill="#000000" fill-opacity="0.0" d="m162.53362 122.26819l-47.55906 -23.055115" fill-rule="evenodd"/><path stroke="#45818e" stroke-width="16.0" stroke-linejoin="round" stroke-linecap="butt" d="m162.53362 122.26819l-47.55906 -23.055115" fill-rule="evenodd"/><path fill="#000000" fill-opacity="0.0" d="m302.31577 115.64089l76.28345 -44.06299" fill-rule="evenodd"/><path stroke="#45818e" stroke-width="16.0" stroke-linejoin="round" stroke-linecap="butt" d="m302.31577 115.64089l76.28345 -44.06299" fill-rule="evenodd"/><path fill="#000000" fill-opacity="0.0" d="m63.425198 228.0l0 -105.732285" fill-rule="evenodd"/><path stroke="#45818e" stroke-width="16.0" stroke-linejoin="round" stroke-linecap="butt" d="m63.425198 228.0l0 -105.732285" fill-rule="evenodd"/></g></svg>