<svg version="1.1" viewBox="0.0 0.0 544.0 269.36745406824144" fill="none" stroke="none" stroke-linecap="square" stroke-miterlimit="10" xmlns:xlink="http://www.w3.org/1999/xlink" xmlns="http://www.w3.org/2000/svg"><clipPath id="p.0"><path d="m0 0l544.0 0l0 269.36746l-544.0 0l0 -269.36746z" clip-rule="nonzero"/></clipPath><g clip-path="url(#p.0)"><path fill="#000000" fill-opacity="0.0" d="m0 0l544.0 0l0 269.36746l-544.0 0z" fill-rule="evenodd"/><path fill="#000000" fill-opacity="0.0" d="m573.7248 92.32284l-450.55118 0l0 144.7244l450.55118 0z" fill-rule="evenodd"/><path fill="#434343" d="m204.4423 138.25253q10.625 0 19.015625 4.421875q8.390625 4.40625 13.1875 12.734375q4.796875 8.3125 4.796875 19.4375q0 11.140625 -4.796875 19.46875q-4.796875 8.3125 -13.1875 12.734375q-8.390625 4.40625 -19.015625 4.40625q-10.609375 0 -19.0625 -4.40625q-8.453125 -4.421875 -13.25 -12.734375q-4.796875 -8.328125 -4.796875 -19.46875q0 -11.125 4.796875 -19.4375q4.796875 -8.328125 13.25 -12.734375q8.453125 -4.421875 19.0625 -4.421875zm0 18.9375q-6.265625 0 -10.5625 4.546875q-4.28125 4.546875 -4.28125 13.109375q0 8.578125 4.28125 13.0625q4.296875 4.484375 10.5625 4.484375q6.28125 0 10.5 -4.484375q4.234375 -4.484375 4.234375 -13.0625q0 -8.5625 -4.234375 -13.109375q-4.21875 -4.546875 -10.5 -4.546875zm119.43263 -18.046875l0 71.421875l-22.015625 0l0 -12.921875q-3.078125 6.265625 -9.15625 9.984375q-6.078125 3.703125 -14.140625 3.703125q-12.296875 0 -19.53125 -8.1875q-7.21875 -8.1875 -7.21875 -22.53125l0 -41.46875l21.75 0l0 38.78125q0 7.296875 3.78125 11.328125q3.78125 4.03125 10.171875 4.03125q6.65625 0 10.5 -4.21875q3.84375 -4.234375 3.84375 -12.03125l0 -37.890625l22.015625 0zm60.409637 -0.765625q12.296875 0 19.515625 8.1875q7.234375 8.1875 7.234375 22.53125l0 41.46875l-21.875 0l0 -38.90625q0 -7.171875 -3.78125 -11.203125q-3.78125 -4.03125 -10.046875 -4.03125q-6.65625 0 -10.5625 4.21875q-3.90625 4.21875 -3.90625 12.03125l0 37.890625l-21.890625 0l0 -71.421875l21.890625 0l0 13.046875q3.078125 -6.390625 9.15625 -10.09375q6.078125 -3.71875 14.265625 -3.71875zm81.66864 53.375l0 18.8125l-9.859375 0q-12.546875 0 -19.53125 -6.203125q-6.96875 -6.21875 -6.96875 -20.546875l0 -26.234375l-9.59375 0l0 -18.4375l9.59375 0l0 -17.531242l21.890625 0l0 17.531242l14.34375 0l0 18.4375l-14.34375 0l0 26.609375q0 4.234375 1.71875 5.90625q1.734375 1.65625 5.84375 1.65625l6.90625 0zm31.611023 0.515625l33.03122 0l0 18.296875l-56.96872 0l0 -17.28125l30.71875 -35.96875l-30.203125 0l0 -18.171875l55.171844 0l0 17.28125l-31.74997 35.84375z" fill-rule="nonzero"/><path fill="#000000" fill-opacity="0.0" d="m149.17195 92.32331l-134.4567 0l0 144.7244l134.4567 0z" fill-rule="evenodd"/><path fill="#434343" d="m82.38622 119.17489q17.28125 0 28.609375 9.093742q11.328125 9.078125 14.65625 24.5625l-23.171875 0q-2.546875 -6.265625 -7.859375 -9.84375q-5.3125 -3.59375 -12.609375 -3.59375q-9.609375 0 -15.5 7.046875q-5.875 7.03125 -5.875 18.8125q0 11.78125 5.875 18.765625q5.890625 6.96875 15.5 6.96875q7.296875 0 12.609375 -3.578125q5.3125 -3.59375 7.859375 -9.734375l23.171875 0q-3.328125 15.359375 -14.65625 24.515625q-11.328125 9.140625 -28.609375 9.140625q-13.171875 0 -23.15625 -5.8125q-9.984375 -5.828125 -15.4375 -16.328125q-5.4375 -10.5 -5.4375 -23.9375q0 -13.4375 5.4375 -23.9375q5.453125 -10.5 15.4375 -16.312492q9.984375 -5.828125 23.15625 -5.828125z" fill-rule="nonzero"/><path fill="#000000" fill-opacity="0.0" d="m81.94382 249.55165l73.51178 -36.755905l0 -96.22047l-73.51178 -36.755905l-73.51178 36.755905l0 96.22047z" fill-rule="evenodd"/><path stroke="#674ea7" stroke-width="16.0" stroke-linejoin="round" stroke-linecap="butt" d="m81.94382 249.55165l73.51178 -36.755905l0 -96.22047l-73.51178 -36.755905l-73.51178 36.755905l0 96.22047z" fill-rule="evenodd"/><path fill="#000000" fill-opacity="0.0" d="m249.81187 121.56646l-48.992096 -24.496063l0 -64.14174l48.992096 -24.496063l48.99211 24.496063l0 64.14174z" fill-rule="evenodd"/><path stroke="#674ea7" stroke-width="16.0" stroke-linejoin="round" stroke-linecap="butt" d="m249.81187 121.56646l-48.992096 -24.496063l0 -64.14174l48.992096 -24.496063l48.99211 24.496063l0 64.14174z" fill-rule="evenodd"/><path fill="#000000" fill-opacity="0.0" d="m152.26933 120.51228l47.55905 -23.055115" fill-rule="evenodd"/><path stroke="#674ea7" stroke-width="16.0" stroke-linejoin="round" stroke-linecap="butt" d="m152.26933 120.51228l47.55905 -23.055115" fill-rule="evenodd"/></g></svg>