<svg version="1.1" viewBox="0.0 0.0 572.0 822.0" fill="none" stroke="none" stroke-linecap="square" stroke-miterlimit="10" xmlns:xlink="http://www.w3.org/1999/xlink" xmlns="http://www.w3.org/2000/svg"><clipPath id="p.0"><path d="m0 0l572.0 0l0 822.0l-572.0 0l0 -822.0z" clip-rule="nonzero"/></clipPath><g clip-path="url(#p.0)"><path fill="#000000" fill-opacity="0.0" d="m0 0l572.0 0l0 822.0l-572.0 0z" fill-rule="evenodd"/><path fill="#000000" fill-opacity="0.0" d="m310.418 216.03313l0 0c0 24.500153 -9.735992 47.99684 -27.066101 65.32106c-17.33014 17.32425 -40.834854 27.056885 -65.34335 27.056885l0 -92.377945z" fill-rule="evenodd"/><path fill="#000000" fill-opacity="0.0" d="m310.418 216.03313l0 0c0 24.500153 -9.735992 47.99684 -27.066101 65.32106c-17.33014 17.32425 -40.834854 27.056885 -65.34335 27.056885" fill-rule="evenodd"/><path stroke="#999999" stroke-width="16.0" stroke-linejoin="round" stroke-linecap="butt" d="m310.418 216.03313l0 0c0 24.500153 -9.735992 47.99684 -27.066101 65.32106c-17.33014 17.32425 -40.834854 27.056885 -65.34335 27.056885" fill-rule="evenodd"/><path fill="#000000" fill-opacity="0.0" d="m221.81241 175.15515l0 0c8.156998 8.156982 8.156998 21.382065 0 29.539047l-15.122345 15.12236l0 0c-3.9171295 3.9171295 -9.229889 6.117737 -14.769531 6.117737c-5.5396576 0 -10.852417 -2.2006073 -14.769531 -6.117737l-63.21685 -63.216843c-8.156982 -8.156982 -8.156982 -21.38208 0 -29.539062l15.122353 -15.122353c8.156998 -8.15699 21.38208 -8.15699 29.539062 0z" fill-rule="evenodd"/><path stroke="#073763" stroke-width="16.0" stroke-linejoin="round" stroke-linecap="butt" d="m221.81241 175.15515l0 0c8.156998 8.156982 8.156998 21.382065 0 29.539047l-15.122345 15.12236l0 0c-3.9171295 3.9171295 -9.229889 6.117737 -14.769531 6.117737c-5.5396576 0 -10.852417 -2.2006073 -14.769531 -6.117737l-63.21685 -63.216843c-8.156982 -8.156982 -8.156982 -21.38208 0 -29.539062l15.122353 -15.122353c8.156998 -8.15699 21.38208 -8.15699 29.539062 0z" fill-rule="evenodd"/><path fill="#000000" fill-opacity="0.0" d="m12.999551 203.9597l85.895485 -22.01004l52.901947 52.901947l-22.010025 85.89549z" fill-rule="evenodd"/><path stroke="#073763" stroke-width="16.0" stroke-linejoin="round" stroke-linecap="butt" d="m12.999551 203.9597l85.895485 -22.01004l52.901947 52.901947l-22.010025 85.89549z" fill-rule="evenodd"/><path fill="#000000" fill-opacity="0.0" d="m249.6045 216.01866l0 0c0 8.374161 -3.3266144 16.405334 -9.248047 22.326767c-5.921417 5.921417 -13.952591 9.248047 -22.326752 9.248047l0 -31.574814z" fill-rule="evenodd"/><path fill="#000000" fill-opacity="0.0" d="m249.6045 216.01866l0 0c0 8.374161 -3.3266144 16.405334 -9.248047 22.326767c-5.921417 5.921417 -13.952591 9.248047 -22.326752 9.248047" fill-rule="evenodd"/><path stroke="#999999" stroke-width="16.0" stroke-linejoin="round" stroke-linecap="butt" d="m249.6045 216.01866l0 0c0 8.374161 -3.3266144 16.405334 -9.248047 22.326767c-5.921417 5.921417 -13.952591 9.248047 -22.326752 9.248047" fill-rule="evenodd"/><path fill="#000000" fill-opacity="0.0" d="m278.93762 220.31482l0 0c0 15.019196 -5.966339 29.423233 -16.586517 40.043396c-10.620178 10.620178 -25.024216 16.586517 -40.043396 16.586517l0 -56.629913z" fill-rule="evenodd"/><path fill="#000000" fill-opacity="0.0" d="m278.93762 220.31482l0 0c0 15.019196 -5.966339 29.423233 -16.586517 40.043396c-10.620178 10.620178 -25.024216 16.586517 -40.043396 16.586517" fill-rule="evenodd"/><path stroke="#999999" stroke-width="16.0" stroke-linejoin="round" stroke-linecap="butt" d="m278.93762 220.31482l0 0c0 15.019196 -5.966339 29.423233 -16.586517 40.043396c-10.620178 10.620178 -25.024216 16.586517 -40.043396 16.586517" fill-rule="evenodd"/><path fill="#000000" fill-opacity="0.0" d="m322.7463 127.7892l-85.89548 22.010025l-52.90193 -52.90194l22.010025 -85.895485z" fill-rule="evenodd"/><path stroke="#073763" stroke-width="16.0" stroke-linejoin="round" stroke-linecap="butt" d="m322.7463 127.7892l-85.89548 22.010025l-52.90193 -52.90194l22.010025 -85.895485z" fill-rule="evenodd"/><path fill="#000000" fill-opacity="0.0" d="m494.0971 537.4698l0 0c37.38678 37.38678 34.07672 101.39093 -7.4031067 143.1502c-41.47986 41.75934 -105.50873 45.54779 -143.20554 8.473145l75.04959 -76.06427z" fill-rule="evenodd"/><path stroke="#073763" stroke-width="16.0" stroke-linejoin="round" stroke-linecap="butt" d="m494.0971 537.4698l0 0c37.38678 37.38678 34.07672 101.39093 -7.4031067 143.1502c-41.47986 41.75934 -105.50873 45.54779 -143.20554 8.473145l75.04959 -76.06427z" fill-rule="evenodd"/><path fill="#000000" fill-opacity="0.0" d="m388.80557 808.77795l45.18228 -76.31494l74.80081 0l45.18228 76.31494z" fill-rule="evenodd"/><path stroke="#073763" stroke-width="16.0" stroke-linejoin="round" stroke-linecap="butt" d="m388.80557 808.77795l45.18228 -76.31494l74.80081 0l45.18228 76.31494z" fill-rule="evenodd"/><path fill="#000000" fill-opacity="0.0" d="m326.12933 600.0298l0 0c0 -24.500183 9.735992 -47.996887 27.066101 -65.321106c17.33014 -17.324219 40.83484 -27.056854 65.34335 -27.056854l0 92.37796z" fill-rule="evenodd"/><path fill="#000000" fill-opacity="0.0" d="m326.12933 600.0298l0 0c0 -24.500183 9.735992 -47.996887 27.066101 -65.321106c17.33014 -17.324219 40.83484 -27.056854 65.34335 -27.056854" fill-rule="evenodd"/><path stroke="#999999" stroke-width="16.0" stroke-linejoin="round" stroke-linecap="butt" d="m326.12933 600.0298l0 0c0 -24.500183 9.735992 -47.996887 27.066101 -65.321106c17.33014 -17.324219 40.83484 -27.056854 65.34335 -27.056854" fill-rule="evenodd"/><path fill="#000000" fill-opacity="0.0" d="m386.9428 600.0442l0 0c0 -8.3741455 3.3266296 -16.405334 9.248047 -22.326721c5.9214478 -5.9214478 13.952606 -9.248047 22.326782 -9.248047l0 31.574768z" fill-rule="evenodd"/><path fill="#000000" fill-opacity="0.0" d="m386.9428 600.0442l0 0c0 -8.3741455 3.3266296 -16.405334 9.248047 -22.326721c5.9214478 -5.9214478 13.952606 -9.248047 22.326782 -9.248047" fill-rule="evenodd"/><path stroke="#999999" stroke-width="16.0" stroke-linejoin="round" stroke-linecap="butt" d="m386.9428 600.0442l0 0c0 -8.3741455 3.3266296 -16.405334 9.248047 -22.326721c5.9214478 -5.9214478 13.952606 -9.248047 22.326782 -9.248047" fill-rule="evenodd"/><path fill="#000000" fill-opacity="0.0" d="m357.6097 595.74805l0 0c0 -15.019165 5.966339 -29.423218 16.586517 -40.043396c10.620178 -10.620178 25.0242 -16.586487 40.043396 -16.586487l0 56.629883z" fill-rule="evenodd"/><path fill="#000000" fill-opacity="0.0" d="m357.6097 595.74805l0 0c0 -15.019165 5.966339 -29.423218 16.586517 -40.043396c10.620178 -10.620178 25.0242 -16.586487 40.043396 -16.586487" fill-rule="evenodd"/><path stroke="#999999" stroke-width="16.0" stroke-linejoin="round" stroke-linecap="butt" d="m357.6097 595.74805l0 0c0 -15.019165 5.966339 -29.423218 16.586517 -40.043396c10.620178 -10.620178 25.0242 -16.586487 40.043396 -16.586487" fill-rule="evenodd"/></g></svg>