<svg version="1.1" viewBox="0.0 0.0 333.0 333.0" fill="none" stroke="none" stroke-linecap="square" stroke-miterlimit="10" xmlns:xlink="http://www.w3.org/1999/xlink" xmlns="http://www.w3.org/2000/svg"><clipPath id="p.0"><path d="m0 0l333.0 0l0 333.0l-333.0 0l0 -333.0z" clip-rule="nonzero"/></clipPath><g clip-path="url(#p.0)"><path fill="#000000" fill-opacity="0.0" d="m0 0l333.0 0l0 333.0l-333.0 0z" fill-rule="evenodd"/><path fill="#000000" fill-opacity="0.0" d="m218.0316 23.329395l0 0c24.500168 0 47.99684 9.73597 65.32109 27.066101c17.324219 17.330135 27.056854 40.834835 27.056854 65.34335l-92.377945 0z" fill-rule="evenodd"/><path fill="#000000" fill-opacity="0.0" d="m218.0316 23.329395l0 0c24.500168 0 47.99684 9.73597 65.32109 27.066101c17.324219 17.330135 27.056854 40.834835 27.056854 65.34335" fill-rule="evenodd"/><path stroke="#999999" stroke-width="16.0" stroke-linejoin="round" stroke-linecap="butt" d="m218.0316 23.329395l0 0c24.500168 0 47.99684 9.73597 65.32109 27.066101c17.324219 17.330135 27.056854 40.834835 27.056854 65.34335" fill-rule="evenodd"/><path fill="#000000" fill-opacity="0.0" d="m177.15363 111.93497l0 0c8.156998 -8.156982 21.38208 -8.156982 29.539062 0l15.12236 15.12236l0 0c3.9171295 3.9171295 6.117737 9.229874 6.117737 14.769531c0 5.5396423 -2.2006073 10.852402 -6.117737 14.769531l-63.216843 63.216843c-8.156982 8.156982 -21.38208 8.156982 -29.539062 0l-15.122353 -15.12236c-8.15699 -8.156982 -8.15699 -21.382065 0 -29.539062z" fill-rule="evenodd"/><path stroke="#073763" stroke-width="16.0" stroke-linejoin="round" stroke-linecap="butt" d="m177.15363 111.93497l0 0c8.156998 -8.156982 21.38208 -8.156982 29.539062 0l15.12236 15.12236l0 0c3.9171295 3.9171295 6.117737 9.229874 6.117737 14.769531c0 5.5396423 -2.2006073 10.852402 -6.117737 14.769531l-63.216843 63.216843c-8.156982 8.156982 -21.38208 8.156982 -29.539062 0l-15.122353 -15.12236c-8.15699 -8.156982 -8.15699 -21.382065 0 -29.539062z" fill-rule="evenodd"/><path fill="#000000" fill-opacity="0.0" d="m205.95818 320.74783l-22.010025 -85.89549l52.901947 -52.90193l85.89548 22.010025z" fill-rule="evenodd"/><path stroke="#073763" stroke-width="16.0" stroke-linejoin="round" stroke-linecap="butt" d="m205.95818 320.74783l-22.010025 -85.89549l52.901947 -52.90193l85.89548 22.010025z" fill-rule="evenodd"/><path fill="#000000" fill-opacity="0.0" d="m218.01715 84.142876l0 0c8.374161 0 16.405334 3.326622 22.326767 9.248039c5.921417 5.921425 9.248032 13.952606 9.248032 22.32676l-31.574799 0z" fill-rule="evenodd"/><path fill="#000000" fill-opacity="0.0" d="m218.01715 84.142876l0 0c8.374161 0 16.405334 3.326622 22.326767 9.248039c5.921417 5.921425 9.248032 13.952606 9.248032 22.32676" fill-rule="evenodd"/><path stroke="#999999" stroke-width="16.0" stroke-linejoin="round" stroke-linecap="butt" d="m218.01715 84.142876l0 0c8.374161 0 16.405334 3.326622 22.326767 9.248039c5.921417 5.921425 9.248032 13.952606 9.248032 22.32676" fill-rule="evenodd"/><path fill="#000000" fill-opacity="0.0" d="m222.31331 54.80976l0 0c15.019196 0 29.423233 5.9663467 40.04341 16.586517c10.620148 10.620171 16.586517 25.024216 16.586517 40.043404l-56.62993 0z" fill-rule="evenodd"/><path fill="#000000" fill-opacity="0.0" d="m222.31331 54.80976l0 0c15.019196 0 29.423233 5.9663467 40.04341 16.586517c10.620148 10.620171 16.586517 25.024216 16.586517 40.043404" fill-rule="evenodd"/><path stroke="#999999" stroke-width="16.0" stroke-linejoin="round" stroke-linecap="butt" d="m222.31331 54.80976l0 0c15.019196 0 29.423233 5.9663467 40.04341 16.586517c10.620148 10.620171 16.586517 25.024216 16.586517 40.043404" fill-rule="evenodd"/><path fill="#000000" fill-opacity="0.0" d="m129.78769 11.001064l22.010025 85.89548l-52.90194 52.901947l-85.895485 -22.010025z" fill-rule="evenodd"/><path stroke="#073763" stroke-width="16.0" stroke-linejoin="round" stroke-linecap="butt" d="m129.78769 11.001064l22.010025 85.89548l-52.90194 52.901947l-85.895485 -22.010025z" fill-rule="evenodd"/></g></svg>